<svg id="icon_2_" data-name="icon (2)" xmlns="http://www.w3.org/2000/svg" width="13.064" height="12.05" viewBox="0 0 13.064 12.05">
  <path id="Path_2914" data-name="Path 2914" d="M9.715,6.049s.528-.4.126-.8-.793.117-.793.117L5,9.406s-.947,1.222-1.667.483.483-1.667.483-1.667l5.3-5.3s1.237-1.363,2.4-.2-.205,2.4-.205,2.4L5.36,11.079s-1.906,2.2-3.67.437.459-3.649.459-3.649L6.671,3.344s.506-.423.127-.8-.8.127-.8.127L.806,7.856a3.068,3.068,0,0,0,.229,4.335,3.07,3.07,0,0,0,4.337.229L12.5,5.288a2.308,2.308,0,0,0-.274-3.276,2.307,2.307,0,0,0-3.275-.275L2.817,7.873a1.757,1.757,0,0,0-.146,2.7,1.727,1.727,0,0,0,2.681-.168Z" transform="translate(0 -1.178)" fill="silver"/>
</svg>
