<svg xmlns="http://www.w3.org/2000/svg" width="16" height="16" viewBox="0 0 16 16">
  <g id="Group_11420" data-name="Group 11420" transform="translate(-2001 -14298)">
    <g id="Group_11419" data-name="Group 11419" transform="translate(1696 14117)">
      <circle id="Ellipse_771" data-name="Ellipse 771" cx="8" cy="8" r="8" transform="translate(305 181)" fill="#fff"/>
    </g>
    <path id="Path_21678" data-name="Path 21678" d="M322.263,240.27h2.829l4.587-2.716a.43.43,0,0,1,.13-.065v-.016h.049l.016-.016h.049v.016h.032l.016.016.016.016h0v.016H330v.016h.016v.016l.017.016v.032h.016v8.49h-.016v.032H330v.016h-.016v.016h-.016v.016h-.13v-.016h-.032l-.016-.016h-.033v-.016h-.016c-.032-.016-.081-.032-.1-.065l-4.521-2.8h-.536l-.326,2.781h-1.09l-.39-2.781h-.52v-.7H321.6V242.4h-.13a.2.2,0,0,1-.211-.212v-.829a.205.205,0,0,1,.211-.212h.13v-.163h.668v-.716Zm.715.992h1.431v.39h-1.431v-.39Zm0,.52h1.431v.39h-1.431v-.39Zm0,.5h1.431v.39h-1.431v-.39Zm0-1.545h1.431v.407h-1.431v-.407Z" transform="translate(1633.919 14150.508) rotate(-14)" fill="#82ae3f" fill-rule="evenodd"/>
  </g>
</svg>
