<svg xmlns="http://www.w3.org/2000/svg" width="13.004" height="12" viewBox="0 0 13.004 12">
  <g id="Group_11422" data-name="Group 11422" transform="translate(-226 -246)">
    <g id="ic_linked_camera_24px" transform="translate(226 246)">
      <circle id="Ellipse_15" data-name="Ellipse 15" cx="2.081" cy="2.081" r="2.081" transform="translate(4.421 4.853)" fill="#bcbcbc"/>
      <path id="Path_90" data-name="Path 90" d="M16,2.865A3.036,3.036,0,0,1,19.036,5.9H19.9A3.9,3.9,0,0,0,16,2v.865M16,4.6a1.3,1.3,0,0,1,1.3,1.3h.865A2.164,2.164,0,0,0,16,3.736V4.6" transform="translate(-6.897 -2)" fill="#bcbcbc"/>
      <path id="Path_91" data-name="Path 91" d="M11.753,7.153a1.277,1.277,0,0,0-1.3-1.261V4h-3.9L5.361,5.261H3.3A1.285,1.285,0,0,0,2,6.522v7.567A1.285,1.285,0,0,0,3.3,15.35H13.7A1.285,1.285,0,0,0,15,14.089V7.153ZM8.5,13.458a3.154,3.154,0,1,1,0-6.305,3.154,3.154,0,1,1,0,6.305Z" transform="translate(-2 -3.35)" fill="#bcbcbc"/>
    </g>
  </g>
</svg>
