<svg xmlns="http://www.w3.org/2000/svg" width="31.106" height="28.551" viewBox="0 0 31.106 28.551">
  <g id="Group_11421" data-name="Group 11421" transform="translate(-297.286 -658.715)">
    <g id="chat" transform="translate(297.286 658.714)">
      <path id="Path_2642" data-name="Path 2642" d="M9.518,24.5h6.74a.518.518,0,1,0,0-1.037H9.518a.518.518,0,1,0,0,1.037Z" transform="translate(-4.334 -12.578)" fill="#82af3f"/>
      <path id="Path_2643" data-name="Path 2643" d="M23,29.465H9.518a.518.518,0,1,0,0,1.037H23a.518.518,0,1,0,0-1.037Z" transform="translate(-4.334 -15.467)" fill="#82af3f"/>
      <path id="Path_2644" data-name="Path 2644" d="M23,35.465H9.518a.518.518,0,1,0,0,1.037H23a.518.518,0,1,0,0-1.037Z" transform="translate(-4.334 -18.357)" fill="#82af3f"/>
      <path id="Path_2645" data-name="Path 2645" d="M28.033,2.5l-17.7-.036A3.078,3.078,0,0,0,7.258,5.539V8.2L3.074,8.2A3.078,3.078,0,0,0,0,11.279v10.96a3.077,3.077,0,0,0,3.074,3.074H6.221V30.5a.519.519,0,0,0,.9.349l5.031-5.534,8.62-.035A3.078,3.078,0,0,0,23.848,22.2v-.059l2.727,3a.519.519,0,0,0,.9-.349V19.611h.555a3.078,3.078,0,0,0,3.074-3.074V5.576A3.078,3.078,0,0,0,28.033,2.5ZM22.811,22.2a2.04,2.04,0,0,1-2.04,2.037l-8.85.036a.519.519,0,0,0-.382.17L7.258,29.156V24.794a.518.518,0,0,0-.518-.518H3.074a2.04,2.04,0,0,1-2.037-2.037V11.278A2.04,2.04,0,0,1,3.075,9.241l4.7-.01h0l13-.027a2.04,2.04,0,0,1,2.037,2.037V22.2Zm7.258-5.667a2.039,2.039,0,0,1-2.037,2.037H26.959a.518.518,0,0,0-.518.518v4.362L23.848,20.6v-9.36a3.078,3.078,0,0,0-3.075-3.074L8.3,8.193V5.539A2.04,2.04,0,0,1,10.331,3.5l17.7.036h0A2.04,2.04,0,0,1,30.07,5.575V16.536Z" transform="translate(0 -2.465)" fill="#82af3f"/>
    </g>
  </g>
</svg>
