<svg xmlns="http://www.w3.org/2000/svg" width="29.869" height="40.515" viewBox="0 0 29.869 40.515"><defs><style>.a{fill:#b1b1b1;}</style></defs><g transform="translate(0)"><path class="a" d="M23.729,28.656a1.156,1.156,0,0,0,1.321-.964l.272-1.81a1.126,1.126,0,0,1,.611-.84l1.639-.819a1.149,1.149,0,0,0,.506-1.557l-.844-1.632a1.127,1.127,0,0,1,0-1.03l.844-1.631a1.164,1.164,0,0,0,.073-.885,1.152,1.152,0,0,0-.578-.672L25.934,16a1.126,1.126,0,0,1-.611-.84l-.272-1.81a1.156,1.156,0,0,0-1.321-.962l-1.813.3a1.123,1.123,0,0,1-.981-.319l-1.288-1.308a1.153,1.153,0,0,0-.819-.34,1.166,1.166,0,0,0-.819.34l-1.288,1.308a1.117,1.117,0,0,1-.981.319l-1.81-.3a1.156,1.156,0,0,0-1.323.962l-.271,1.81a1.13,1.13,0,0,1-.611.84l-1.64.819a1.153,1.153,0,0,0-.506,1.557l.844,1.631a1.117,1.117,0,0,1,0,1.03l-.844,1.632a1.153,1.153,0,0,0,.506,1.557l1.64.819a1.13,1.13,0,0,1,.611.84l.271,1.81a1.156,1.156,0,0,0,1.323.964l1.81-.3a1.111,1.111,0,0,1,.981.317l1.288,1.305a1.144,1.144,0,0,0,1.637,0l1.288-1.305a1.114,1.114,0,0,1,.981-.317Zm-4.9-1.321a6.982,6.982,0,1,1,6.982-6.981A6.988,6.988,0,0,1,18.827,27.334Z" transform="translate(0.458 6.557)"/><path class="a" d="M17.536,12.991A5.965,5.965,0,1,0,23.5,18.956,5.973,5.973,0,0,0,17.536,12.991Z" transform="translate(1.751 7.943)"/><path class="a" d="M24.78,23.9l-3.247-3.249-.164,1.1a1.934,1.934,0,0,1-.772,1.268,1.91,1.91,0,0,1-1.437.343l-1.814-.3a.361.361,0,0,0-.306.1l-.309.311,4.241,4.24a.617.617,0,0,0,1.046-.322l.382-2.058,2.064-.387a.609.609,0,0,0,.474-.425A.617.617,0,0,0,24.78,23.9Z" transform="translate(4.906 12.624)"/><path class="a" d="M16.38,23.05l-1.869.3A1.93,1.93,0,0,1,12.3,21.738l-.164-1.091L8.889,23.9a.617.617,0,0,0,.321,1.044l2.063.385.387,2.061a.614.614,0,0,0,1.041.324l4.24-4.241-.309-.313A.349.349,0,0,0,16.38,23.05Z" transform="translate(0.001 12.624)"/><path class="a" d="M22.565,4.217H7.361a.992.992,0,0,0,0,1.984h15.2a.992.992,0,0,0,0-1.984Z" transform="translate(-1.428 2.578)"/><path class="a" d="M22.565,7.371H7.361a.99.99,0,1,0,0,1.98h15.2a.99.99,0,1,0,0-1.98Z" transform="translate(-1.428 4.507)"/><path class="a" d="M13.888,32.576l-.749-.374a2.624,2.624,0,0,1-.527-.359h-6.4a.8.8,0,0,1-.794-.793V2.907a.8.8,0,0,1,.794-.8h21.3a.8.8,0,0,1,.794.8V17.421a2.751,2.751,0,0,1,2.079,2.258l.032-16.77A2.908,2.908,0,0,0,27.511,0H6.212A2.913,2.913,0,0,0,3.3,2.909V31.053a2.914,2.914,0,0,0,2.909,2.91H12.5Z" transform="translate(-3.303)"/></g></svg>