<svg xmlns="http://www.w3.org/2000/svg" width="20" height="22" viewBox="0 0 20 22">
  <g id="excel" transform="translate(0 -10.626)">
    <g id="Group_11106" data-name="Group 11106" transform="translate(0 10.626)">
      <path id="Path_21614" data-name="Path 21614" d="M11.51,10.733a.377.377,0,0,0-.353-.1L.323,13.506A.47.47,0,0,0,0,13.977V30.235a.463.463,0,0,0,.353.472L11.186,32.62a.428.428,0,0,0,.475-.4.548.548,0,0,0,0-.072V11.108A.507.507,0,0,0,11.51,10.733Z" transform="translate(0 -10.626)" fill="#646464"/>
      <path id="Path_21615" data-name="Path 21615" d="M286.083,70.612H277.75a.455.455,0,0,1,0-.907h7.917V54.284H277.75a.455.455,0,0,1,0-.907h8.333a.436.436,0,0,1,.417.454V70.158A.436.436,0,0,1,286.083,70.612Z" transform="translate(-266.5 -50.992)" fill="#646464"/>
    </g>
    <g id="Group_11107" data-name="Group 11107" transform="translate(3.326 16.258)">
      <path id="Path_21616" data-name="Path 21616" d="M89.74,170.486a.41.41,0,0,1-.353-.28l-4.167-9.521a.765.765,0,0,1,.114-.826c.191-.183.45-.11.578.163l.014.033,4.167,9.521a.757.757,0,0,1-.134.82A.331.331,0,0,1,89.74,170.486Z" transform="translate(-85.149 -159.758)" fill="#fafafa"/>
      <path id="Path_21617" data-name="Path 21617" d="M85.771,170.465c-.23,0-.416-.268-.416-.6a.793.793,0,0,1,.063-.314l4.167-9.521c.115-.284.37-.381.569-.216a.749.749,0,0,1,.152.813l-.014.033-4.167,9.521A.411.411,0,0,1,85.771,170.465Z" transform="translate(-85.347 -159.737)" fill="#fafafa"/>
    </g>
    <g id="Group_11108" data-name="Group 11108" transform="translate(10.833 13.011)">
      <path id="Path_21618" data-name="Path 21618" d="M363.084,70.611a.436.436,0,0,1-.417-.454V53.83a.418.418,0,1,1,.833,0V70.157A.436.436,0,0,1,363.084,70.611Z" transform="translate(-359.334 -53.376)" fill="#646464"/>
      <path id="Path_21619" data-name="Path 21619" d="M286.083,374.566H277.75c-.23,0-.417-.266-.417-.6s.187-.6.417-.6h8.333c.23,0,.417.266.417.6S286.313,374.566,286.083,374.566Z" transform="translate(-277.333 -360.005)" fill="#646464"/>
      <path id="Path_21620" data-name="Path 21620" d="M286.083,310.566H277.75c-.23,0-.417-.266-.417-.6s.187-.6.417-.6h8.333c.23,0,.417.266.417.6S286.313,310.566,286.083,310.566Z" transform="translate(-277.333 -298.679)" fill="#646464"/>
      <path id="Path_21621" data-name="Path 21621" d="M286.083,246.566H277.75c-.23,0-.417-.266-.417-.6s.187-.6.417-.6h8.333c.23,0,.417.266.417.6S286.313,246.566,286.083,246.566Z" transform="translate(-277.333 -237.354)" fill="#646464"/>
      <path id="Path_21622" data-name="Path 21622" d="M286.083,182.566H277.75c-.23,0-.417-.266-.417-.6s.187-.6.417-.6h8.333c.23,0,.417.266.417.6S286.313,182.566,286.083,182.566Z" transform="translate(-277.333 -176.028)" fill="#646464"/>
      <path id="Path_21623" data-name="Path 21623" d="M286.083,118.566H277.75c-.23,0-.417-.266-.417-.6s.187-.6.417-.6h8.333c.23,0,.417.266.417.6S286.313,118.566,286.083,118.566Z" transform="translate(-277.333 -114.702)" fill="#646464"/>
    </g>
  </g>
</svg>
