<svg xmlns="http://www.w3.org/2000/svg" width="42.12" height="78.842" viewBox="0 0 42.12 78.842"><defs><style>.a{fill:#666;}.b{fill:#474545;}.c{fill:#fff;stroke:#707070;stroke-width:0.25px;}.d{fill:#b7b7b7;}.e{stroke:none;}.f{fill:none;}</style></defs><path class="a" d="M153.437,0H118.2a3.5,3.5,0,0,0-3.442,3.555V75.288a3.5,3.5,0,0,0,3.442,3.555h35.237a3.5,3.5,0,0,0,3.441-3.555V3.555A3.5,3.5,0,0,0,153.437,0Z" transform="translate(-114.759)"/><rect class="b" width="42.12" height="63.207" transform="translate(0 6.384)"/><g transform="translate(18.915 2.899)"><path class="a" d="M347.175,20.554h-1.45a1.45,1.45,0,0,1,0-2.9h1.45a1.45,1.45,0,1,1,0,2.9Z" transform="translate(-329.807 -17.654)"/><g class="c" transform="translate(0 68.68)"><circle class="e" cx="2.921" cy="2.921" r="2.921"/><circle class="f" cx="2.921" cy="2.921" r="2.796"/></g></g><rect class="d" width="42.12" height="29.99" transform="translate(0 22.994)"/></svg>