<svg xmlns="http://www.w3.org/2000/svg" width="28.01" height="33.011" viewBox="0 0 28.01 33.011">
  <g id="Group_11423" data-name="Group 11423" transform="translate(-2894 -14124)">
    <circle id="Notification_Badge" data-name="Notification Badge" cx="4" cy="4" r="4" transform="translate(2905 14124)" fill="#82af3f"/>
    <path id="Path_21680" data-name="Path 21680" d="M26.259,19.257h-.875a7.616,7.616,0,0,1-2.626-5.252V8.753A8.668,8.668,0,0,0,14.005,0,8.668,8.668,0,0,0,5.252,8.753v5.252a7.616,7.616,0,0,1-2.626,5.252H1.751a1.751,1.751,0,1,0,0,3.5H26.259a1.751,1.751,0,0,0,0-3.5Z" transform="translate(2894 14129)" fill="#bcbccb"/>
    <path id="Path_21679" data-name="Path 21679" d="M13,14H6a3.5,3.5,0,0,0,7,0Z" transform="translate(2898.504 14139.51)" fill="#bcbccb"/>
  </g>
</svg>
