<svg xmlns="http://www.w3.org/2000/svg" width="41.843" height="78.324" viewBox="0 0 41.843 78.324"><defs><style>.a{fill:#666;}.b{fill:#b7b7b7;}.c{fill:#fff;stroke:#707070;stroke-width:0.25px;}.d{stroke:none;}.e{fill:none;}</style></defs><path class="a" d="M153.182,0h-35a3.477,3.477,0,0,0-3.419,3.531V74.792a3.477,3.477,0,0,0,3.419,3.531h35.005a3.477,3.477,0,0,0,3.418-3.531V3.531A3.477,3.477,0,0,0,153.182,0Z" transform="translate(-114.759)"/><rect class="b" width="41.843" height="62.792" transform="translate(0 6.342)"/><g transform="translate(18.791 2.88)"><path class="a" d="M347.156,20.535h-1.44a1.44,1.44,0,0,1,0-2.881h1.44a1.44,1.44,0,1,1,0,2.881Z" transform="translate(-329.903 -17.654)"/><g class="c" transform="translate(0 68.228)"><circle class="d" cx="2.902" cy="2.902" r="2.902"/><circle class="e" cx="2.902" cy="2.902" r="2.777"/></g></g></svg>