<svg xmlns="http://www.w3.org/2000/svg" width="30" height="30" viewBox="0 0 30 30">
  <g id="Group_7212" data-name="Group 7212" transform="translate(-15 -668)">
    <path id="Path_2617" data-name="Path 2617" d="M1318.233,365.908l-2.175-2.15c-7.725-7.643-12.825-12.687-12.825-18.858,0-5.044,3.622-8.992,8.25-8.992a8.719,8.719,0,0,1,6.75,3.409,8.717,8.717,0,0,1,6.75-3.409c4.627,0,8.25,3.948,8.25,8.992,0,6.172-5.1,11.215-12.825,18.858Z" transform="translate(-1288.233 332.092)" fill="#fc6767"/>
    <path id="Path_2618" data-name="Path 2618" d="M120.413,743.691h6.971l3.983-4.851,2.988,7.179,1.992-2.328h6.722" transform="translate(-101.816 -59.385)" fill="none" stroke="#fff" stroke-linecap="round" stroke-linejoin="round" stroke-width="1"/>
  </g>
</svg>
