<svg xmlns="http://www.w3.org/2000/svg" width="11.932" height="11.932" viewBox="0 0 11.932 11.932"><defs><style>.a{fill:#f8bc18;}</style></defs><path class="a" d="M5.966,0a5.966,5.966,0,1,0,5.966,5.966A5.973,5.973,0,0,0,5.966,0Zm0,10.847a4.881,4.881,0,1,1,4.881-4.881A4.887,4.887,0,0,1,5.966,10.847Z"/><path class="a" d="M145.725,70a.723.723,0,1,0,.723.723A.724.724,0,0,0,145.725,70Z" transform="translate(-139.759 -67.469)"/><path class="a" d="M150.542,140a.542.542,0,0,0-.542.542V143.8a.542.542,0,0,0,1.085,0v-3.254A.542.542,0,0,0,150.542,140Z" transform="translate(-144.577 -134.938)"/></svg>