<svg xmlns="http://www.w3.org/2000/svg" width="32.547" height="30.313" viewBox="0 0 32.547 30.313">
  <g id="Group_11004" data-name="Group 11004" transform="translate(16196.752 -14413.24)">
    <g id="Group_11011" data-name="Group 11011" transform="translate(-16196.503 14413.493)">
      <g id="box" transform="translate(0 0)">
        <g id="Group_11005" data-name="Group 11005" transform="translate(0 0)">
          <g id="Group_11004-2" data-name="Group 11004" transform="translate(0 0)">
            <path id="Path_21603" data-name="Path 21603" d="M43.728,6.577,30.193.043a.437.437,0,0,0-.38,0L16.279,6.577a.437.437,0,0,0-.247.393V22.838a.437.437,0,0,0,.247.393l13.535,6.534a.437.437,0,0,0,.38,0l13.535-6.534a.437.437,0,0,0,.247-.393V6.97A.437.437,0,0,0,43.728,6.577ZM30,.921,42.533,6.97,38.9,8.724a.433.433,0,0,0-.074-.047L26.382,2.669ZM25.4,3.163,37.908,9.2,35.345,10.44,22.839,4.4Zm12.8,6.869V14.6L35.807,15.76V11.187Zm4.9,12.533L30.44,28.676v-14.9l3.02-1.458a.437.437,0,0,0-.38-.786L30,13.019l-1.211-.585a.437.437,0,0,0-.38.786l1.154.557v14.9L16.905,22.564V7.666l9.641,4.654a.437.437,0,0,0,.38-.786L17.473,6.97l4.338-2.094,13.117,6.332.006.008v5.24a.437.437,0,0,0,.627.393l3.267-1.577a.437.437,0,0,0,.247-.393V9.61L43.1,7.666v14.9Z" transform="translate(-16.032 0.001)" fill="#b1b1b1" stroke="#b1b1b1" stroke-width="0.5"/>
          </g>
        </g>
        <g id="Group_11007" data-name="Group 11007" transform="translate(1.864 19.869)">
          <g id="Group_11006" data-name="Group 11006" transform="translate(0)">
            <path id="Path_21604" data-name="Path 21604" d="M50.661,342.264l-1.986-.959a.437.437,0,0,0-.38.786l1.986.959a.437.437,0,0,0,.38-.786Z" transform="translate(-48.048 -341.261)" fill="#b1b1b1"/>
          </g>
        </g>
        <g id="Group_11009" data-name="Group 11009" transform="translate(1.867 17.798)">
          <g id="Group_11008" data-name="Group 11008" transform="translate(0)">
            <path id="Path_21605" data-name="Path 21605" d="M52.534,307.574l-3.811-1.84a.437.437,0,0,0-.38.786l3.811,1.84a.437.437,0,0,0,.38-.787Z" transform="translate(-48.096 -305.69)" fill="#b1b1b1"/>
          </g>
        </g>
      </g>
    </g>
    <g id="Group_11014" data-name="Group 11014" transform="translate(-16173.928 14431.558)">
      <circle id="Ellipse_768" data-name="Ellipse 768" cx="2" cy="2" r="2" transform="translate(3.218 2.84)" fill="#fff"/>
      <g id="Group_11013" data-name="Group 11013" transform="translate(0 0)">
        <path id="gear" d="M9.005,3.561,8.3,3.407a3.857,3.857,0,0,0-.228-.55l.392-.61A.276.276,0,0,0,8.424,1.9L7.319.8A.276.276,0,0,0,6.976.761l-.61.392a3.858,3.858,0,0,0-.55-.228L5.661.217A.276.276,0,0,0,5.392,0H3.83a.276.276,0,0,0-.269.217L3.407.926a3.858,3.858,0,0,0-.55.228L2.246.761A.276.276,0,0,0,1.9.8L.8,1.9a.276.276,0,0,0-.037.344l.392.61a3.858,3.858,0,0,0-.228.55l-.709.154A.276.276,0,0,0,0,3.83V5.392a.276.276,0,0,0,.217.269l.709.154a3.857,3.857,0,0,0,.228.55l-.392.61A.276.276,0,0,0,.8,7.319l1.1,1.1a.276.276,0,0,0,.344.037l.61-.392a3.858,3.858,0,0,0,.55.228l.154.709a.276.276,0,0,0,.269.217H5.392a.276.276,0,0,0,.269-.217L5.815,8.3a3.857,3.857,0,0,0,.55-.228l.61.392a.276.276,0,0,0,.344-.037l1.1-1.1a.276.276,0,0,0,.037-.344l-.392-.61a3.857,3.857,0,0,0,.228-.55l.709-.154a.276.276,0,0,0,.217-.269V3.83A.276.276,0,0,0,9.005,3.561ZM6.264,4.611A1.653,1.653,0,1,1,4.611,2.958,1.655,1.655,0,0,1,6.264,4.611Zm0,0" transform="translate(0 0)" fill="#fff" stroke="#b1b1b1" stroke-width="1"/>
      </g>
    </g>
  </g>
</svg>
