<svg xmlns="http://www.w3.org/2000/svg" width="18" height="22" viewBox="0 0 18 22">
  <g id="pdf_1_" data-name="pdf (1)" transform="translate(-19.329)">
    <path id="Path_21611" data-name="Path 21611" d="M20.615,0H31.539l5.79,6.168V20.625A1.333,1.333,0,0,1,36.043,22H20.615a1.333,1.333,0,0,1-1.286-1.375V1.375A1.333,1.333,0,0,1,20.615,0Z" transform="translate(0)" fill="#646464"/>
    <path id="Path_21612" data-name="Path 21612" d="M208.678,6.342l-4.568-.03A1.3,1.3,0,0,1,202.824,5L202.9.193Z" transform="translate(-171.36 -0.18)" fill="#817f7f"/>
    <path id="Path_21613" data-name="Path 21613" d="M95.749,136.173a.381.381,0,0,0,0-.753H94.522a.387.387,0,0,0-.373.425v3.066c0,.273.153.425.36.425s.359-.152.359-.425v-.841h.742a.352.352,0,0,0,.345-.382.345.345,0,0,0-.345-.371h-.742v-1.144ZM91.6,135.42h-.9a.4.4,0,0,0-.417.422v3.071a.4.4,0,0,0,.427.411h.942a1.762,1.762,0,0,0,1.851-1.9A1.809,1.809,0,0,0,91.6,135.42Zm.043,3.148H91.1v-2.391h.493c.746,0,1.071.509,1.071,1.212C92.663,138.047,92.344,138.568,91.646,138.568Zm-3.288-3.148H87.47a.378.378,0,0,0-.392.425v3.066a.379.379,0,1,0,.753,0v-.9h.557a1.228,1.228,0,0,0,1.256-1.293A1.242,1.242,0,0,0,88.359,135.42Zm-.015,1.877h-.512V136.14h.512a.582.582,0,0,1,0,1.157Z" transform="translate(-63.243 -126.258)" fill="#fff"/>
  </g>
</svg>
