<svg xmlns="http://www.w3.org/2000/svg" width="28.463" height="37.355" viewBox="0 0 28.463 37.355"><defs><style>.a{fill:#b1b1b1;}</style></defs><g transform="translate(0 0)"><g transform="translate(0 0)"><path class="a" d="M83.845,2.49H75.8V.623A.621.621,0,0,0,75.182,0h-9.9a.621.621,0,0,0-.619.622h0V2.49H56.619A.621.621,0,0,0,56,3.113h0v33.62a.621.621,0,0,0,.618.623H83.844a.621.621,0,0,0,.619-.622h0V3.113A.621.621,0,0,0,83.845,2.49ZM65.9,1.245h8.663V4.981H65.9ZM83.226,36.11H57.238V3.736h7.425V5.6a.621.621,0,0,0,.618.623h9.9A.621.621,0,0,0,75.8,5.6h0V3.736h7.425Z" transform="translate(-56 0)"/></g><g transform="translate(2.233 29.746)"><g transform="translate(0 0)"><rect class="a" width="14" height="1.006"/></g></g><g transform="translate(17.233 29.746)"><g transform="translate(0 0)"><rect class="a" width="9" height="1.006"/></g></g><g transform="translate(2.233 31.758)"><g transform="translate(0 0)"><rect class="a" width="24" height="1.006" transform="translate(0 0)"/></g></g><g transform="translate(2.233 33.77)"><g transform="translate(0 0)"><rect class="a" width="10" height="1.006" transform="translate(0 0)"/></g></g><g transform="translate(13.233 33.77)"><g transform="translate(0 0)"><rect class="a" width="13" height="1.006" transform="translate(0 0)"/></g></g><g transform="translate(2.475 18.055)"><path class="a" d="M92.332,232H88.619a.621.621,0,0,0-.619.622h0v8.094a.621.621,0,0,0,.618.623h3.713a.621.621,0,0,0,.619-.622h0v-8.094A.621.621,0,0,0,92.332,232Zm-.619,8.094H89.238v-6.848h2.475Z" transform="translate(-88 -232)"/></g><g transform="translate(8.663 15.565)"><g transform="translate(0)"><path class="a" d="M172.332,200h-3.713a.621.621,0,0,0-.619.622h0v10.584a.621.621,0,0,0,.618.623h3.713a.621.621,0,0,0,.619-.622h0V200.623A.621.621,0,0,0,172.332,200Zm-.619,10.584h-2.475v-9.339h2.475Z" transform="translate(-168 -200)"/></g></g><g transform="translate(14.85 13.074)"><g transform="translate(0)"><path class="a" d="M252.332,168h-3.713a.621.621,0,0,0-.619.622h0V181.7a.621.621,0,0,0,.618.623h3.713a.621.621,0,0,0,.619-.622h0V168.623A.621.621,0,0,0,252.332,168Zm-.619,13.074h-2.475V169.245h2.475Z" transform="translate(-248 -168)"/></g></g><g transform="translate(21.038 10.584)"><path class="a" d="M332.332,136h-3.713a.621.621,0,0,0-.619.622h0v15.565a.621.621,0,0,0,.618.623h3.713a.62.62,0,0,0,.619-.622h0V136.623A.621.621,0,0,0,332.332,136Zm-.619,15.565h-2.475v-14.32h2.475Z" transform="translate(-328 -136)"/></g><g transform="translate(2.766 6.238)"><g transform="translate(0)"><path class="a" d="M114.244,80.156,108.056,81.4a.617.617,0,0,0-.222.092l-5.413,3.631H97.04a.614.614,0,0,0-.328.095l-4.95,3.113.656,1.056,4.8-3.018h5.392a.617.617,0,0,0,.343-.1l5.467-3.667,6.068-1.221Z" transform="translate(-91.762 -80.156)"/></g></g></g></svg>