<svg xmlns="http://www.w3.org/2000/svg" width="30" height="30" viewBox="0 0 30 30">
  <g id="Group_7213" data-name="Group 7213" transform="translate(-53 -397)">
    <path id="Path_6812" data-name="Path 6812" d="M15,0A15,15,0,1,1,0,15,15,15,0,0,1,15,0Z" transform="translate(53 397)" fill="#6857ff"/>
    <path id="path" d="M87.905,453.4a8.06,8.06,0,0,0-5.684,2.321A7.61,7.61,0,0,0,79.9,461.4a7.923,7.923,0,0,0,2.321,5.684,8.377,8.377,0,0,0,8.085,2,7.244,7.244,0,0,1-4-2.882,8.344,8.344,0,0,1,0-9.606,7.53,7.53,0,0,1,4-2.882A12.359,12.359,0,0,0,87.905,453.4Z" transform="matrix(0.891, -0.454, 0.454, 0.891, -218.031, 41.016)" fill="#fff"/>
    <path id="path-2" data-name="path" d="M187.481,1081.029l-.422.259.109-.477-.368-.32.49-.041.191-.45.191.45.49.041-.368.32.109.477Z" transform="translate(-116.681 -667.194)" fill="#fff"/>
    <path id="path-3" data-name="path" d="M187.858,1081.6l-.656.4.169-.741-.572-.5.762-.063.3-.7.3.7.762.063-.572.5.169.741Z" transform="translate(-118.058 -674.55)" fill="#fff"/>
    <path id="path-4" data-name="path" d="M187.276,1080.719l-.3.181.076-.333-.257-.224.343-.029.133-.314.133.314.343.029-.257.224.076.333Z" transform="translate(-118.476 -670)" fill="#fff"/>
    <path id="path-5" data-name="path" d="M187.6,1081.11l-.495.279.128-.514-.431-.345.575-.044.223-.485.223.485.575.044-.431.345.128.514Z" transform="translate(-114.798 -671.244)" fill="#fff"/>
    <path id="path-6" data-name="path" d="M187.317,1080.719l-.321.181.083-.333-.279-.224.372-.029.145-.314.145.314.372.029-.279.224.083.333Z" transform="translate(-114.517 -674)" fill="#fff"/>
    <path id="path-7" data-name="path" d="M187.073,1080.38l-.169.1.044-.176-.147-.118.2-.015.076-.166.076.166.2.015-.147.118.044.176Z" transform="translate(-114.273 -668.787)" fill="#fff"/>
  </g>
</svg>
