<svg xmlns="http://www.w3.org/2000/svg" width="36.892" height="30.328" viewBox="0 0 36.892 30.328">
  <g id="Group_7211" data-name="Group 7211" transform="translate(301 -259.585)">
    <path id="Path_2628" data-name="Path 2628" d="M161.247,1000.054a5.4,5.4,0,0,1-.706.579,11.231,11.231,0,0,1-5.016,1.939,14.416,14.416,0,0,1-2.5.16,17.256,17.256,0,0,1-7.958-1.946,12.07,12.07,0,0,1-5.134-5.241,11.388,11.388,0,0,0-3.173-3.8,20.443,20.443,0,0,0-4.187-2.569,15.084,15.084,0,0,1-3.792-2.555,10.85,10.85,0,0,1-2.23-2.7,4.18,4.18,0,0,1-.505-1.354,2.532,2.532,0,0,1,.865-2.324,4.925,4.925,0,0,1,1.819-1.07c.142-.051.217-.029.261.127a7.655,7.655,0,0,0,1.4,2.55,26.008,26.008,0,0,0,4.6,4.457,47.785,47.785,0,0,1,4.94,4.415,13.166,13.166,0,0,1,2.241,2.857,11.818,11.818,0,0,0,1.27,2.005,15.979,15.979,0,0,0,4.661,3.981,7.888,7.888,0,0,0,3.062.844,39.646,39.646,0,0,0,4.791.2,27.084,27.084,0,0,0,5.115-.563A.227.227,0,0,1,161.247,1000.054ZM127.275,982.3a.623.623,0,0,0,.211.479c.15.157.3.314.45.472l3.5,3.7a.667.667,0,0,0,.254.182.63.63,0,0,0,.744-.234.665.665,0,0,0-.075-.832q-.94-1.007-1.887-2.008-1.046-1.11-2.094-2.218a.624.624,0,0,0-.713-.16A.6.6,0,0,0,127.275,982.3Z" transform="translate(-427.014 -712.825)" fill="#82ae3f"/>
    <path id="Path_2629" data-name="Path 2629" d="M343.754,833.811c.017-.483,0-.967.035-1.451a3.691,3.691,0,0,0-.927-2.9,3.186,3.186,0,0,0-1.948-.992,6.211,6.211,0,0,0-1.322-.006A6.4,6.4,0,0,1,335.159,827a.776.776,0,0,1-.344-.806,6.927,6.927,0,0,0-.59-3.469,11.379,11.379,0,0,0-1.341-2.353c-.1-.137-.108-.211.054-.307a7.375,7.375,0,0,1,2.585-1.027,4.089,4.089,0,0,1,1.69.065.977.977,0,0,1,.735,1.076,5.684,5.684,0,0,0,2.405,5.421,8.826,8.826,0,0,0,2.48,1.359,8.925,8.925,0,0,0,3.271.289c.335-.023.669-.069,1-.119.137-.021.189.033.23.148.13.371.26.742.4,1.107.067.168.027.235-.144.281-.732.2-1.46.406-2.19.607a.484.484,0,0,0-.411.4c-.062.4.224.638.648.532.374-.094.744-.206,1.115-.31.392-.11.785-.216,1.174-.332.15-.045.228-.016.281.143q.181.549.4,1.088c.069.174.037.252-.151.295-.582.13-1.16.274-1.74.413a1.662,1.662,0,0,0-.162.044.47.47,0,0,0-.329.56.434.434,0,0,0,.5.354,12.638,12.638,0,0,0,1.293-.286c.268-.056.535-.116.8-.19.161-.046.228.009.278.156.109.326.223.651.352.969.072.177.029.248-.154.291-.7.164-1.39.338-2.084.515a.48.48,0,1,0,.222.926c.28-.064.559-.137.838-.206.463-.114.928-.219,1.388-.346.166-.046.226.01.274.155.113.34.23.678.361,1.011.062.158.015.211-.136.244-.7.156-1.4.318-2.092.478-.061.014-.123.027-.184.046a.479.479,0,0,0-.338.554.452.452,0,0,0,.552.362c.788-.17,1.576-.345,2.36-.532.186-.044.262,0,.32.177a5.778,5.778,0,0,0,.986,1.87c.033.042.094.083.06.144s-.1.034-.155.036a6.02,6.02,0,0,0-1.9.341,4.344,4.344,0,0,0-2.1,1.62,1.608,1.608,0,0,1-.754.614.416.416,0,0,1-.344-.009,3.437,3.437,0,0,1-1.379-1.172,7.451,7.451,0,0,1-1.136-2.9c-.066-.323-.12-.648-.162-.975A16.975,16.975,0,0,1,343.754,833.811Z" transform="translate(-625.102 -559.398)" fill="#82ae3f"/>
    <path id="Path_2630" data-name="Path 2630" d="M557.918,1314.669c.394.156.762.308,1.135.448a7.83,7.83,0,0,0,2.393.535,2.815,2.815,0,0,0,2.662-1.205,3.564,3.564,0,0,1,2.657-1.477,5.728,5.728,0,0,1,1.963.122,5.039,5.039,0,0,1,.957.429q2.613,1.194,5.216,2.406a3.805,3.805,0,0,1,1.461,1.144c.405.534.34.877-.244,1.214a6.587,6.587,0,0,1-2.178.682,30,30,0,0,1-6.181.41c-1.114-.031-2.227-.109-3.333-.25a7.131,7.131,0,0,1-3.338-1.4,17.391,17.391,0,0,1-3.058-2.845A.355.355,0,0,1,557.918,1314.669Z" transform="translate(-840.729 -1032.544)" fill="#82ae3f"/>
    <path id="Path_2631" data-name="Path 2631" d="M325.939,1040.645a4.827,4.827,0,0,1-.923-.253,14.873,14.873,0,0,1-2.6-1.187.521.521,0,0,1-.221-.188,17.183,17.183,0,0,0-2.984-3.684,56.278,56.278,0,0,0-5.257-4.563c-.276-.215-.53-.459-.8-.681-.132-.108-.118-.172.015-.266a7.328,7.328,0,0,0,1.6-1.512,5.424,5.424,0,0,0,.689-1.153c.073-.171.134-.189.283-.072a7.344,7.344,0,0,0,3.438,1.537,6.444,6.444,0,0,0,1.8.036,2.521,2.521,0,0,1,2.756,1.473,3.752,3.752,0,0,1,.183,1.721,20.374,20.374,0,0,0,.021,2.754,15.05,15.05,0,0,0,.443,2.822,7.535,7.535,0,0,0,1.5,3.075C325.912,1040.538,325.959,1040.569,325.939,1040.645Z" transform="translate(-606.184 -758.664)" fill="#82ae3f"/>
    <path id="Path_2632" data-name="Path 2632" d="M221.931,866.958a4.8,4.8,0,0,1-1.676,3.659,8.15,8.15,0,0,1-.895.7.186.186,0,0,1-.276-.018,16.409,16.409,0,0,1-2.6-3.158,4.117,4.117,0,0,1-.568-1.441.592.592,0,0,1,.115-.491,22.185,22.185,0,0,1,3.748-3.91c.156-.125.239-.128.362.044a9.487,9.487,0,0,1,1.693,3.7A5.88,5.88,0,0,1,221.931,866.958Z" transform="translate(-513.115 -600.802)" fill="#82ae3f"/>
    <path id="Path_2633" data-name="Path 2633" d="M562.644,938.364a6.453,6.453,0,0,1-2.719-.477c-.273-.117-.281-.142-.085-.355a4.969,4.969,0,0,1,1.9-1.392,2.9,2.9,0,0,1,.966-.189,1.009,1.009,0,0,1,.976.638c.189.483.354.976.537,1.462.07.186-.05.2-.174.217A8.389,8.389,0,0,1,562.644,938.364Z" transform="translate(-842.44 -671.439)" fill="#82ae3f"/>
  </g>
</svg>
