<svg xmlns="http://www.w3.org/2000/svg" width="17.215" height="17.809" viewBox="0 0 17.215 17.809"><defs><style>.a{fill:#4482c3;}.b{fill:#14a085;}.c{fill:#fff;}.d{fill:#e57e25;}.e{fill:#f0c419;}</style></defs><g transform="translate(-8.534)"><path class="a" d="M49.271,2.374a.3.3,0,0,0-.3.3V13.8a3.413,3.413,0,0,1-6.827,0V4.007a4.007,4.007,0,1,0-8.014,0V16.325a.3.3,0,1,0,.594,0V4.007a3.413,3.413,0,1,1,6.827,0V13.8a4.007,4.007,0,1,0,8.014,0V2.671A.3.3,0,0,0,49.271,2.374Z" transform="translate(-24.71)"/><circle class="b" cx="3.859" cy="3.859" r="3.859" transform="translate(13.283 5.046)"/><path class="c" d="M208.04,204.859a.3.3,0,0,0-.413.073l-1.875,2.678-.343-.343a.3.3,0,0,0-.42.42l.594.594a.3.3,0,0,0,.21.087h.026a.3.3,0,0,0,.217-.126l2.078-2.968a.3.3,0,0,0-.073-.414Z" transform="translate(-189.541 -197.681)"/><path class="d" d="M351.054,8.533v3.562h-.89a.3.3,0,0,1-.3-.3V8.83a.3.3,0,0,1,.3-.3h.89Z" transform="translate(-329.461 -8.236)"/><path class="e" d="M388.155,8.83V11.8a.3.3,0,0,1-.3.3H384V8.533h3.858A.3.3,0,0,1,388.155,8.83Z" transform="translate(-362.406 -8.236)"/><g transform="translate(22.484 1.187)"><path class="d" d="M411.678,34.133H409.9a.3.3,0,0,0,0,.594h1.781a.3.3,0,0,0,0-.594Z" transform="translate(-409.6 -34.133)"/><path class="d" d="M410.49,68.267H409.9a.3.3,0,1,0,0,.594h.594a.3.3,0,0,0,0-.594Z" transform="translate(-409.6 -67.08)"/></g><circle class="e" cx="1.187" cy="1.187" r="1.187" transform="translate(8.534 15.137)"/></g></svg>